<svg width="20" height="20" viewBox="0 0 20 20" fill="none" xmlns="http://www.w3.org/2000/svg">
<path d="M7.89062 12.1094C8.48438 12.7031 9.1875 13 10 13C10.8125 13 11.5156 12.7031 12.1094 12.1094C12.7031 11.5156 13 10.8125 13 10C13 9.1875 12.7031 8.48438 12.1094 7.89062C11.5156 7.29688 10.8125 7 10 7C9.1875 7 8.48438 7.29688 7.89062 7.89062C7.29688 8.48438 7 9.1875 7 10C7 10.8125 7.29688 11.5156 7.89062 12.1094ZM2.92188 2.96875C4.89062 1 7.25 0.015625 10 0.015625C12.75 0.015625 15.0938 1 17.0312 2.96875C19 4.90625 19.9844 7.25 19.9844 10V11.4531C19.9844 12.4531 19.6406 13.2969 18.9531 13.9844C18.2969 14.6719 17.4844 15.0156 16.5156 15.0156C15.2969 15.0156 14.3125 14.5156 13.5625 13.5156C12.5625 14.5156 11.375 15.0156 10 15.0156C8.625 15.0156 7.4375 14.5312 6.4375 13.5625C5.46875 12.5625 4.98438 11.375 4.98438 10C4.98438 8.625 5.46875 7.45312 6.4375 6.48438C7.4375 5.48438 8.625 4.98438 10 4.98438C11.375 4.98438 12.5469 5.48438 13.5156 6.48438C14.5156 7.45312 15.0156 8.625 15.0156 10V11.4531C15.0156 11.8594 15.1562 12.2188 15.4375 12.5312C15.75 12.8438 16.1094 13 16.5156 13C16.9219 13 17.2656 12.8438 17.5469 12.5312C17.8594 12.2188 18.0156 11.8594 18.0156 11.4531V10C18.0156 7.8125 17.2188 5.9375 15.625 4.375C14.0625 2.78125 12.1875 1.98438 10 1.98438C7.8125 1.98438 5.92188 2.78125 4.32812 4.375C2.76562 5.9375 1.98438 7.8125 1.98438 10C1.98438 12.1875 2.76562 14.0781 4.32812 15.6719C5.92188 17.2344 7.8125 18.0156 10 18.0156H15.0156V19.9844H10C7.25 19.9844 4.89062 19.0156 2.92188 17.0781C0.984375 15.1094 0.015625 12.75 0.015625 10C0.015625 7.25 0.984375 4.90625 2.92188 2.96875Z" fill="#A3A3B0"/>
</svg>
