<svg width="32" height="28" viewBox="0 0 32 28" fill="none" xmlns="http://www.w3.org/2000/svg">
<path d="M30.4144 15.0317C30.3844 15.0767 30.352 15.1199 30.3172 15.1612C30.2504 14.8529 30.1897 14.5816 30.1411 14.3104C30.0621 13.8788 29.9892 13.4472 29.9163 13.0156C29.7985 12.4014 29.6215 11.8004 29.3878 11.2214C29.1934 10.6583 28.9683 10.1067 28.7134 9.56901C28.6488 9.42501 28.594 9.27669 28.5494 9.12508C28.2454 8.24286 27.88 7.38368 27.4559 6.55403C27.3952 6.44305 27.3283 6.3259 27.2615 6.22109C27.2214 6.14928 27.1724 6.08298 27.1157 6.02379C26.9821 5.86965 26.8423 5.83266 26.7208 5.90664C26.5993 5.98063 26.5629 6.10394 26.6176 6.28891C26.7512 6.69584 26.8909 7.0966 27.0367 7.52203C27.219 8.03994 27.4134 8.55168 27.6078 9.06343C27.6605 9.20444 27.6605 9.36018 27.6078 9.50119C27.4681 9.98827 27.3405 10.4815 27.2129 10.9748C27.2038 11.0381 27.2038 11.1025 27.2129 11.1659C27.1533 11.3021 27.1026 11.4422 27.061 11.5852C26.8529 12.4513 26.587 13.302 26.2652 14.1316L26.2166 14.187C24.9469 10.4877 23.4829 6.84998 22.1342 3.18761C21.9884 3.18761 21.9884 3.31709 21.9702 3.40958C21.8669 3.89049 21.7697 4.37757 21.6665 4.85849C21.6618 4.88628 21.6491 4.91204 21.63 4.93248C21.3992 3.29859 21.3323 1.65855 21.1258 0H21.0711C21.0711 0.0678216 21.0711 0.135643 21.0711 0.20963C21.0711 0.82619 21.0711 1.44275 21.0711 2.10247C21.0711 3.33559 21.0347 4.56871 21.0225 5.80183C21.0264 6.02864 21.0426 6.25505 21.0711 6.48004C21.0708 6.51855 21.0804 6.55646 21.0989 6.59007C21.1175 6.62367 21.1443 6.6518 21.1768 6.6717C21.2092 6.69161 21.2463 6.70259 21.2842 6.70358C21.3221 6.70457 21.3596 6.69553 21.3931 6.67734C21.5721 6.61353 21.7243 6.48953 21.8244 6.3259C21.9641 6.05462 22.1099 5.78333 22.28 5.46889C22.3286 5.73401 22.3955 5.9498 22.4137 6.17793C22.4683 6.68967 22.4987 7.20142 22.5412 7.71316C22.5448 7.75459 22.5377 7.79625 22.5207 7.83408C22.5037 7.8719 22.4773 7.90459 22.444 7.92896C21.7272 8.76131 20.9496 9.53818 20.1659 10.3089L19.0664 11.4125C18.9327 11.5482 18.8173 11.6961 18.6776 11.8626C18.5956 11.8055 18.5274 11.7304 18.478 11.6429C18.4286 11.5553 18.3992 11.4576 18.392 11.357C18.392 10.9131 18.392 10.463 18.392 10.0191V8.55168C18.3943 8.47042 18.384 8.38929 18.3617 8.31123C18.3617 8.27423 18.3009 8.24957 18.2705 8.21874C18.2402 8.18791 18.1916 8.2804 18.1855 8.31739C18.1855 8.44893 18.1733 8.5784 18.149 8.70582C18.149 9.11892 18.1187 9.53201 18.1004 9.93894C18.1023 10.0053 18.0877 10.071 18.0579 10.1301L17.4504 11.2707L17.3471 11.4557C17.1919 11.2097 17.1019 10.9273 17.0859 10.6357C17.0707 10.4572 17.0707 10.2777 17.0859 10.0992C17.2013 8.77365 17.3289 7.44804 17.5658 6.13477C17.7116 5.30858 17.8939 4.48856 18.0579 3.66853C18.0826 3.55458 18.1008 3.43931 18.1126 3.32326C18.1126 3.24927 18.1126 3.16912 18.0032 3.13829C18.0032 3.19378 17.9364 3.25544 17.906 3.32326C17.3603 4.58829 16.9213 5.89804 16.5938 7.23841C16.3751 8.21258 16.1807 9.19907 15.9863 10.1794C15.9711 10.2667 15.9357 10.3491 15.8831 10.4199L12.876 14.0761C12.876 14.0761 12.8456 14.1377 12.8091 14.15C12.6845 12.263 12.6967 10.3691 12.8456 8.48386C12.2353 9.01648 11.7374 9.66868 11.3815 10.4014C11.2731 10.2132 11.2086 10.0022 11.1932 9.7848C11.1194 9.11919 11.2178 8.44555 11.4787 7.83031C11.6853 7.35556 11.9222 6.8993 12.147 6.44305C12.1836 6.37611 12.2332 6.31738 12.2928 6.27041C12.5783 6.00529 12.9003 5.74634 13.1615 5.46889C13.3411 5.27337 13.5094 5.06751 13.6657 4.85233C13.7143 4.7845 13.7386 4.69819 13.6657 4.64886C13.6376 4.63375 13.6063 4.62584 13.5746 4.62584C13.5428 4.62584 13.5115 4.63375 13.4834 4.64886C13.1986 4.76058 12.9275 4.90541 12.6755 5.08045C11.7216 5.82953 10.877 6.71172 10.1665 7.70083C9.93686 7.98739 9.67138 8.24233 9.37676 8.4592C9.37676 8.37288 9.40713 8.32972 9.41928 8.28656C9.48003 8.02761 9.54686 7.76865 9.60761 7.50353C9.74699 6.88822 9.9634 6.29355 10.2516 5.73401C10.3731 5.49971 10.4885 5.25926 10.6039 5.01263C10.6404 4.92631 10.6647 4.82766 10.695 4.72901H10.6586L5.2397 8.42837H5.20932L5.30045 8.23724C6.28883 6.43557 7.40129 4.70697 8.62954 3.0643C8.91506 2.68204 9.19451 2.2936 9.47396 1.90517C9.54458 1.79567 9.60946 1.68248 9.66836 1.56606C9.67793 1.55108 9.6845 1.53434 9.6877 1.51678C9.6909 1.49922 9.69066 1.4812 9.68699 1.46374C9.68332 1.44627 9.6763 1.42972 9.66633 1.41501C9.65636 1.4003 9.64363 1.38773 9.62887 1.37801C9.61411 1.36829 9.59761 1.36162 9.58031 1.35838C9.56301 1.35514 9.54526 1.35538 9.52805 1.3591C9.51085 1.36282 9.49453 1.36995 9.48004 1.38007C9.46554 1.39019 9.45316 1.40311 9.44358 1.41809L8.83609 2.10863C7.15365 4.17608 5.69156 6.41847 4.47425 8.79831L4.38312 8.96478C4.38312 8.96478 4.38312 8.96478 4.33452 8.96478C4.30415 8.8538 4.2677 8.74898 4.23732 8.638C3.88911 7.35494 3.60725 6.05428 3.3929 4.74134C3.30371 4.16185 3.31812 3.57079 3.43543 2.99648C3.54478 2.37992 3.67842 1.80035 3.8303 1.20846C2.17546 3.17685 1.00781 5.51794 0.424538 8.03686C-0.158732 10.5558 -0.140747 13.1797 0.476995 15.6901C1.09474 18.2005 2.29437 20.5249 3.97603 22.4698C5.65769 24.4146 7.77274 25.9236 10.1451 26.8713C12.5175 27.8189 15.0786 28.1777 17.6152 27.9179C20.1519 27.658 22.5906 26.787 24.7286 25.3772C26.8665 23.9675 28.6417 22.06 29.9065 19.8133C31.1713 17.5666 31.889 15.0458 32 12.4607L30.4144 15.0317ZM16.3751 13.182C16.5088 13.182 16.6485 13.182 16.7882 13.1204C17.7906 12.9354 18.7991 12.7628 19.7954 12.5593C20.5304 12.4114 21.2594 12.251 21.9884 12.0969C21.9378 12.2337 21.9203 12.3809 21.9374 12.526C21.9545 12.6711 22.0057 12.8099 22.0867 12.9308C22.1676 13.0516 22.276 13.151 22.4027 13.2204C22.5294 13.2899 22.6707 13.3275 22.8146 13.33C22.9911 13.3233 23.1619 13.2654 23.3069 13.1632C23.4519 13.061 23.565 12.9187 23.6328 12.7532C23.7005 12.5878 23.7201 12.4061 23.6893 12.2296C23.6584 12.0532 23.5783 11.8895 23.4586 11.7578L24.5642 11.579H24.7586C24.9105 12.1216 25.0502 12.6456 25.196 13.1697L25.3904 13.9034C25.405 13.9458 25.4087 13.9912 25.4013 14.0354C25.3938 14.0796 25.3755 14.1212 25.3479 14.1562C24.9895 14.6063 24.6553 15.0687 24.2787 15.5065C23.8498 15.9845 23.326 16.3649 22.7417 16.6225C22.3564 16.8125 21.9316 16.9056 21.5034 16.8938C21.0751 16.882 20.6559 16.7657 20.2814 16.5546C19.9229 16.3635 19.5767 16.1415 19.2365 15.9381C18.4142 15.4339 17.6394 14.854 16.9219 14.2055C16.7566 14.0441 16.6004 13.8732 16.4541 13.6938C16.2962 13.4718 16.3022 13.4595 16.3751 13.2005V13.182ZM5.68317 8.74898C5.67433 8.69592 5.67433 8.64174 5.68317 8.58868C5.6787 8.52284 5.69258 8.45706 5.72322 8.39886C5.75387 8.34065 5.80004 8.29238 5.85646 8.25957C5.91288 8.22676 5.97725 8.21074 6.04223 8.21333C6.1072 8.21592 6.17014 8.23703 6.22384 8.27423C6.25853 8.29326 6.29112 8.31599 6.32104 8.34205L7.73651 9.51968C8.27111 9.95127 8.83609 10.352 9.40106 10.7528C9.30819 10.8911 9.25376 11.0522 9.2435 11.2192C9.23324 11.3863 9.26753 11.553 9.34276 11.7019C9.41799 11.8508 9.53138 11.9764 9.67099 12.0655C9.81061 12.1545 9.97129 12.2037 10.1361 12.2079C10.3059 12.215 10.4737 12.1684 10.6163 12.0745C10.7588 11.9806 10.8692 11.8441 10.932 11.6838L11.503 11.9983C11.5753 12.0355 11.6444 12.0788 11.7096 12.1277C11.7535 12.1506 11.7909 12.1844 11.8184 12.226C11.8459 12.2676 11.8626 12.3156 11.8668 12.3655C11.8711 12.4154 11.8628 12.4656 11.8427 12.5114C11.8226 12.5571 11.7915 12.597 11.7521 12.6271C11.7286 12.653 11.7021 12.6758 11.6731 12.695C10.9253 13.2864 10.071 13.7241 9.15806 13.9836C8.93936 14.0391 8.72066 14.0761 8.50196 14.1192C8.28326 14.1624 8.13139 14.0761 8.05241 13.8603C8.05241 13.8603 8.00381 13.8109 7.97951 13.7924C7.7377 13.5892 7.53219 13.3451 7.37201 13.0711C6.78151 12.1742 6.35169 11.1786 6.10234 10.1301C6.02944 9.82796 5.92617 9.51352 5.84112 9.24223L5.68317 8.74898ZM25.8278 20.2047C25.8085 20.309 25.767 20.4077 25.7061 20.494C25.6453 20.5802 25.5665 20.6519 25.4755 20.7041C25.3949 20.7678 25.3046 20.8178 25.2082 20.8521C24.3138 21.2737 23.3795 21.6022 22.4198 21.8324C21.5218 22.0642 20.6109 22.2413 19.6921 22.3626C18.6853 22.5024 17.6657 22.5211 16.6546 22.4181C16.12 22.3626 15.5732 22.338 15.0447 22.2393C14.1126 22.1141 13.1962 21.8888 12.311 21.5673C11.8675 21.3761 11.3997 21.259 10.9502 21.0925C10.295 20.8304 9.66469 20.5085 9.06694 20.1307C8.70015 19.8816 8.35831 19.5966 8.04634 19.2798C7.45945 18.7407 6.92446 18.1461 6.44862 17.5041C6.29674 17.3007 6.16309 17.091 6.02337 16.8876L6.18739 16.9924C6.76452 17.3993 7.32949 17.8247 7.92484 18.2255C9.20957 19.0356 10.6002 19.6583 12.0558 20.0752C12.907 20.3313 13.7762 20.521 14.6559 20.6424C15.4609 20.7544 16.2741 20.7936 17.0859 20.7596C18.9946 20.6475 20.8704 20.2055 22.6324 19.4525C23.167 19.2305 23.7198 19.027 24.2544 18.8359C24.4731 18.7434 24.6796 18.6263 24.8619 18.5215L25.0927 18.3981C25.2992 18.5615 25.4639 18.773 25.5727 19.0147C25.7506 19.3848 25.8381 19.793 25.8278 20.2047Z" fill="url(#paint0_linear_18_164)"/>
<defs>
<linearGradient id="paint0_linear_18_164" x1="16" y1="28" x2="29" y2="-3.4592e-07" gradientUnits="userSpaceOnUse">
<stop stop-color="#F18FF3"/>
<stop offset="1" stop-color="#8E31E1"/>
</linearGradient>
</defs>
</svg>
