<svg width="24" height="12" viewBox="0 0 24 12" fill="none" xmlns="http://www.w3.org/2000/svg">
<path d="M21 3.98438H12.6562C12.375 3.20312 11.9531 2.51562 11.3906 1.92188C10.8594 1.32812 10.2031 0.859375 9.42188 0.515625C8.67188 0.171875 7.85938 0 6.98438 0C5.89062 0 4.89062 0.28125 3.98438 0.84375C3.07812 1.375 2.34375 2.09375 1.78125 3C1.25 3.90625 0.984375 4.90625 0.984375 6C0.984375 7.09375 1.25 8.09375 1.78125 9C2.34375 9.90625 3.07812 10.6406 3.98438 11.2031C4.89062 11.7344 5.89062 12 6.98438 12C7.85938 12 8.67188 11.8281 9.42188 11.4844C10.2031 11.1406 10.8594 10.6719 11.3906 10.0781C11.9531 9.48438 12.375 8.79688 12.6562 8.01562H12.9844L15 9.98438L17.0156 8.01562L18.9844 9.98438L23.0156 5.95312L21 3.98438ZM6.98438 9C6.45312 9 5.95312 8.875 5.48438 8.625C5.04688 8.34375 4.6875 7.98438 4.40625 7.54688C4.125 7.07812 3.98438 6.5625 3.98438 6C3.98438 5.4375 4.125 4.9375 4.40625 4.5C4.6875 4.03125 5.04688 3.67188 5.48438 3.42188C5.95312 3.14062 6.45312 3 6.98438 3C7.54688 3 8.04688 3.14062 8.48438 3.42188C8.95312 3.67188 9.3125 4.03125 9.5625 4.5C9.84375 4.9375 9.98438 5.4375 9.98438 6C9.98438 6.5625 9.84375 7.07812 9.5625 7.54688C9.3125 7.98438 8.95312 8.34375 8.48438 8.625C8.04688 8.875 7.54688 9 6.98438 9Z" fill="#A3A3B0"/>
</svg>
